<?xml version="1.0" standalone="no"?>
<!DOCTYPE svg PUBLIC "-//W3C//DTD SVG 20010904//EN"
 "http://www.w3.org/TR/2001/REC-SVG-20010904/DTD/svg10.dtd">
<svg version="1.0" xmlns="http://www.w3.org/2000/svg"
 width="512.000000pt" height="512.000000pt" viewBox="0 0 512.000000 512.000000"
 preserveAspectRatio="xMidYMid meet">
<metadata>
Created by potrace 1.14, written by Peter Selinger 2001-2017
</metadata>
<g transform="translate(0.000000,512.000000) scale(0.100000,-0.100000)"
fill="#000000" stroke="none">
<path d="M1155 5106 c-16 -7 -40 -24 -52 -37 -52 -57 -50 86 -49 -2499 l1
-2406 25 -48 c15 -28 43 -61 68 -80 l44 -31 1180 -3 c1026 -2 1188 0 1245 13
219 51 380 212 434 435 18 76 21 4505 2 4558 -16 47 -59 90 -102 102 -23 6
-532 10 -1401 10 -1115 -1 -1370 -3 -1395 -14z"/>
</g>
</svg>
